# xmcd
#
# Track frame offsets:
#	150
#	11937
#	24028
#	34479
#	42428
#	57621
#	66506
#	87562
#	101245
#	112320
#	125986
#	142416
#	156482
#	169808
#	184949
#	197151
#	208884
#	221682
#	233786
#	246003
#
# Disc length: 3459 seconds
#
# Revision: 1
# Processed by: cddbd v1.5.1PL0 Copyright (c) Steve Scherf et al.
# Submitted via: CDex 1.50Beta5
#
DISCID=4f0d8114
DTITLE=さまざまなアーティスト - 1950'S
DYEAR=1900
DGENRE=Rock
TTITLE0=さまざまなアーティスト/1
TTITLE1=さまざまなアーティスト/2
TTITLE2=さまざまなアーティスト/3
TTITLE3=さまざまなアーティスト/4
TTITLE4=さまざまなアーティスト/5
TTITLE5=さまざまなアーティスト/6
TTITLE6=さまざまなアーティスト/7
TTITLE7=さまざまなアーティスト/8
TTITLE8=さまざまなアーティスト/9
TTITLE9=さまざまなアーティスト/10
TTITLE10=さまざまなアーティスト/11
TTITLE11=さまざまなアーティスト/12
TTITLE12=テネシーワルツ
TTITLE13=さまざまなアーティスト/14
TTITLE14=さまざまなアーティスト/15
TTITLE15=さまざまなアーティスト/16
TTITLE16=さまざまなアーティスト/17
TTITLE17=さまざまなアーティスト/18
TTITLE18=さまざまなアーティスト/19
TTITLE19=コンドルは飛んで行く
EXTD=
EXTT0=
EXTT1=
EXTT2=
EXTT3=
EXTT4=
EXTT5=
EXTT6=
EXTT7=
EXTT8=
EXTT9=
EXTT10=
EXTT11=
EXTT12=
EXTT13=
EXTT14=
EXTT15=
EXTT16=
EXTT17=
EXTT18=
EXTT19=
PLAYORDER=
